<svg xmlns="http://www.w3.org/2000/svg" xml:space="preserve" width="512" height="512" style="enable-background:new 0 0 512 512" viewBox="0 0 60 60"><path fill="#17172b" d="M18 36h-7.249a2.218 2.218 0 0 0-1.58.66l-4.759 4.75a1.994 1.994 0 0 1-2.82-2.82l4.75-4.76A6.2 6.2 0 0 1 10.751 32H18zm-1-8.72-5.49-2.2a5.448 5.448 0 0 1-3.34-4.03L6.04 10.39a2 2 0 1 1 3.92-.78l2.13 10.67a1.485 1.485 0 0 0 .89 1.08l4.19 1.67L18 25zm2.05 18.71-1.68 1.57a1.124 1.124 0 0 0-.28 1.26l3.01 7.43a2 2 0 1 1-3.7 1.5l-3.02-7.43a5.106 5.106 0 0 1 1.27-5.7l2.72-2.53L19 44zM42 32h7.249a6.2 6.2 0 0 1 4.409 1.83l4.75 4.76a1.994 1.994 0 1 1-2.82 2.82l-4.759-4.75a2.218 2.218 0 0 0-1.58-.66H42zm.83-8.97 4.19-1.67a1.485 1.485 0 0 0 .89-1.08l2.13-10.67a2 2 0 1 1 3.92.78l-2.13 10.66a5.448 5.448 0 0 1-3.34 4.03L43 27.28 42 25zm-.2 19.06 2.72 2.53a5.106 5.106 0 0 1 1.27 5.7l-3.02 7.43a2 2 0 1 1-3.7-1.5l3.01-7.43a1.124 1.124 0 0 0-.28-1.26l-1.68-1.57L41 44zM23.7 11.58l-3.519-7.749a2 2 0 1 1 3.639-1.66l3.32 7.3L26 11zm9.16-2.11 3.32-7.3a2 2 0 1 1 3.639 1.66L36.3 11.58 34 11z" data-original="#17172b"/><path fill="#3c3c66" d="M39 18a3 3 0 0 1-3 3v2H24v-2a3 3 0 0 1-3-3 9 9 0 0 1 18 0z" data-original="#3c3c66"/><path fill="#2a2a49" d="M20 21h20a3 3 0 0 1 3 3v15a13 13 0 0 1-13 13 13 13 0 0 1-13-13V24a3 3 0 0 1 3-3z" data-original="#2a2a49"/><path fill="#25e572" d="M25 38a.994.994 0 0 1-.6-.2l-4-3a1 1 0 0 1 0-1.6l4-3a1 1 0 1 1 1.2 1.6L22.667 34l2.933 2.2A1 1 0 0 1 25 38zm10 0a1 1 0 0 1-.6-1.8l2.933-2.2-2.933-2.2a1 1 0 1 1 1.2-1.6l4 3a1 1 0 0 1 0 1.6l-4 3a.994.994 0 0 1-.6.2zm-6 1a1.017 1.017 0 0 1-.243-.03 1 1 0 0 1-.728-1.212l2-8a1 1 0 0 1 1.94.484l-2 8A1 1 0 0 1 29 39z" data-original="#25e572"/></svg>